<svg width="109" height="122" viewBox="0 0 109 122" fill="none" xmlns="http://www.w3.org/2000/svg">
<path fill-rule="evenodd" clip-rule="evenodd" d="M19 12.6878C8.50659 12.6878 0 21.1944 0 31.6878V102.688C0 113.181 8.50659 121.688 19 121.688H90C100.493 121.688 109 113.181 109 102.688V31.6878C109 21.1944 100.493 12.6878 90 12.6878H19ZM96.8889 42.1005H10.9577V108.423H96.8889V42.1005Z" fill="white"/>
<path fill-rule="evenodd" clip-rule="evenodd" d="M19 12.6878C8.50659 12.6878 0 21.1944 0 31.6878V102.688C0 113.181 8.50659 121.688 19 121.688H90C100.493 121.688 109 113.181 109 102.688V31.6878C109 21.1944 100.493 12.6878 90 12.6878H19ZM96.8889 42.1005H10.9577V108.423H96.8889V42.1005Z" fill="white"/>
<rect x="17.3016" width="12.6878" height="12.6878" fill="white"/>
<rect x="17.3016" width="12.6878" height="12.6878" fill="white"/>
<rect x="78.4339" width="12.6878" height="12.6878" fill="white"/>
<rect x="78.4339" width="12.6878" height="12.6878" fill="white"/>
<rect x="54.2116" y="67.4762" width="30.5661" height="30.5661" fill="white"/>
<rect x="54.2116" y="67.4762" width="30.5661" height="30.5661" fill="white"/>
</svg>
