<svg width="44" height="32" viewBox="0 0 44 32" fill="none" xmlns="http://www.w3.org/2000/svg">
<path d="M44 26.2785C43.7979 26.0664 40.5686 31.5758 32.2919 31.7879C32.2919 31.7879 30.8789 30.0926 29.8693 28.6093C34.7137 27.1261 36.5309 24.1597 36.5309 24.1597C35.1587 25.0159 33.7437 25.794 32.2919 26.4906C30.5361 27.2488 28.711 27.8169 26.8452 28.1859C23.6352 28.7177 20.3656 28.7177 17.1556 28.1859C15.2852 27.8371 13.4581 27.2684 11.7089 26.4906C10.9013 26.0672 9.89329 25.6429 8.88288 25.2195C8.6808 25.2195 8.6808 25.0074 8.47951 25.0074H8.27743C7.95249 24.7759 7.61542 24.5637 7.26781 24.3719C7.26781 24.3719 9.08339 27.3383 13.7273 28.8215C12.5164 30.3047 11.3047 32 11.3047 32C3.02806 31.7879 0 26.2826 0 26.2826C0.128615 18.52 1.99239 10.8977 5.44119 4.02961C10.8942 -0.207881 15.9399 0.00175619 15.9399 0.00175619L16.3433 0.425173C9.68332 2.12299 6.65526 5.30483 6.65526 5.30483C6.65526 5.30483 7.46279 4.88141 8.87578 4.24504C12.9127 2.5464 15.9399 1.90755 17.3537 1.90755H17.9592C20.4396 1.58917 22.9478 1.58917 25.4283 1.90755C29.3736 2.38 33.2041 3.60163 36.733 5.51281C36.733 5.51281 33.701 2.5464 27.4467 0.639782L28.053 0.00175619C28.053 0.00175619 33.0995 -0.210366 38.5517 4.02795C42.0026 10.8946 43.8688 18.5161 44 26.2785ZM14.9311 22.4669C15.9751 22.4385 16.9656 21.976 17.6848 21.1813C18.4041 20.3865 18.7932 19.3244 18.7667 18.2286C18.7925 17.683 18.7125 17.1376 18.5314 16.6256C18.3503 16.1135 18.0719 15.6454 17.7132 15.2496C17.3545 14.8539 16.9229 14.5389 16.4447 14.3236C15.9664 14.1083 15.4515 13.9973 14.9311 13.9973C14.4107 13.9973 13.8958 14.1083 13.4175 14.3236C12.9393 14.5389 12.5077 14.8539 12.149 15.2496C11.7903 15.6454 11.5119 16.1135 11.3308 16.6256C11.1497 17.1376 11.0697 17.683 11.0955 18.2286C11.0696 19.324 11.4591 20.3854 12.1783 21.1797C12.8974 21.9739 13.8876 22.436 14.9311 22.4644V22.4669ZM29.2639 23.3146C30.3078 23.2861 31.2983 22.8237 32.0176 22.0289C32.7368 21.2342 33.126 20.1721 33.0995 19.0762C33.1253 18.5307 33.0452 17.9853 32.8641 17.4732C32.683 16.9611 32.4047 16.493 32.046 16.0973C31.6873 15.7016 31.2557 15.3865 30.7774 15.1712C30.2992 14.9559 29.7842 14.8449 29.2639 14.8449C28.7435 14.8449 28.2285 14.9559 27.7503 15.1712C27.272 15.3865 26.8405 15.7016 26.4818 16.0973C26.123 16.493 25.8447 16.9611 25.6636 17.4732C25.4825 17.9853 25.4024 18.5307 25.4283 19.0762C25.4018 20.1721 25.7909 21.2342 26.5102 22.0289C27.2294 22.8237 28.2199 23.2861 29.2639 23.3146Z" fill="white"/>
</svg>
