<svg width="3746" height="733" viewBox="0 0 3746 733" fill="none" xmlns="http://www.w3.org/2000/svg">
<path d="M103.48 155.424V500.165C102.958 508.121 104.122 516.107 106.862 523.373C108.132 525.62 109.88 527.414 111.924 528.567C113.967 529.72 116.23 530.19 118.475 529.926C120.51 530.1 122.553 529.764 124.476 528.941C126.398 528.117 128.158 526.824 129.646 525.142C130.977 523.338 132 521.237 132.656 518.957C133.312 516.677 133.589 514.263 133.47 511.854V155.424C133.47 144.086 132.295 136.41 129.943 132.397C128.309 130.175 126.251 128.466 123.947 127.417C121.642 126.368 119.161 126.011 116.716 126.376C114.882 126.23 113.043 126.585 111.338 127.413C109.633 128.241 108.104 129.522 106.867 131.161C104.447 134.954 103.246 139.673 103.485 144.449L103.48 155.424ZM1.13123e-06 151.881C1.13123e-06 97.0816 6.66349 63.0684 19.9905 49.841C33.3174 36.6137 65.9497 30 117.887 30C170.998 30 204.119 37.0861 217.252 51.2583C230.384 65.4304 236.949 98.9713 236.946 151.881V503.702C236.946 557.794 230.282 591.866 216.955 605.918C203.628 619.969 170.802 626.996 118.475 627C65.5593 627 32.5837 619.797 19.5483 605.39C6.51297 590.984 -0.00313463 557.088 1.13123e-06 503.702V151.881ZM382.171 128.497V330.45C383.346 330.45 385.013 330.569 387.171 330.807C389.328 331.045 390.896 331.164 391.874 331.164C399.714 331.164 405.054 329.511 407.895 326.204C411.249 320.964 412.778 314.356 412.156 307.78V160.39C412.156 145.745 410.784 136.769 408.041 133.463C405.297 130.156 399.712 128.502 391.286 128.502L382.171 128.497ZM278.691 622.748V33.543H396.578C447.926 33.543 480.655 40.5705 494.766 54.6255C508.877 68.6806 515.933 102.28 515.933 155.424V302.814C515.933 356.434 508.829 390.27 494.62 404.321C480.412 418.372 447.927 425.4 397.166 425.404H382.171V622.748H278.691ZM557.381 622.748V33.543H721.717V128.497H660.273V251.086H721.717V347.105H660.273V527.092H721.717V622.748H557.381ZM763.753 622.748V33.543H859.886L911.335 335.41V33.543H1001V622.748H904.575L852.835 333.993V622.748H763.753Z" fill="#342166"/>
<path d="M1742 32.549V622.741H1844.39V346.636H1905.54V250.456H1844.39V127.662H1905.54V32.549H1742Z" fill="#342166"/>
<path d="M1961.41 48.8743C1948.15 62.1238 1941.52 96.194 1941.52 151.085V503.496C1941.52 556.971 1948 590.924 1960.97 605.354C1973.94 619.785 2006.75 627 2059.41 627C2111.49 626.996 2144.16 619.957 2157.42 605.882C2170.69 591.807 2177.32 557.679 2177.32 503.496V151.085C2177.32 98.0868 2170.78 64.4898 2157.71 50.2939C2144.64 36.098 2111.68 29 2058.83 29C2007.15 29 1974.67 35.6248 1961.41 48.8743Z" fill="#342166"/>
<path d="M2218.85 32.549V622.741H2321.84V388.866H2327.98C2337.14 388.866 2343.39 390.996 2346.7 395.255C2350.01 399.513 2351.67 407.794 2351.67 420.097V622.741H2454.94V430.744C2454.94 401.171 2451.33 379.346 2444.12 365.267C2436.9 351.189 2424.51 341.074 2406.96 334.922C2425.1 327.112 2437.63 315.992 2444.55 301.562C2451.48 287.131 2454.94 258.503 2454.94 215.676V154.634C2454.94 101.401 2447.92 67.7453 2433.88 53.6668C2419.84 39.5882 2387.27 32.549 2336.17 32.549H2218.85Z" fill="#342166"/>
<path d="M2535.1 129.791V622.741H2637.49V129.791H2690.15V32.549H2482.44V129.791H2535.1Z" fill="#342166"/>
<path d="M2720.87 32.549V622.741H2823.85V388.866H2829.99C2839.16 388.866 2845.4 390.996 2848.71 395.255C2852.03 399.513 2853.68 407.794 2853.68 420.097V622.741H2956.95V430.744C2956.95 401.171 2953.35 379.346 2946.13 365.267C2938.91 351.189 2926.53 341.074 2908.97 334.922C2927.11 327.112 2939.64 315.992 2946.57 301.562C2953.49 287.131 2956.95 258.503 2956.95 215.676V154.634C2956.95 101.401 2949.93 67.7453 2935.89 53.6668C2921.85 39.5882 2889.28 32.549 2838.18 32.549H2720.87Z" fill="#342166"/>
<path d="M2998.2 32.549V622.741H3161.73V526.924H3100.59V346.636H3161.73V250.456H3100.59V127.662H3161.73V32.549H2998.2Z" fill="#342166"/>
<path d="M3303.04 385.669H3199.77L3199.77 504.915C3199.77 556.967 3206.35 590.327 3219.51 604.996C3232.68 619.665 3265.88 627 3319.12 627C3355.6 627 3380.32 624.99 3393.29 620.97C3404.71 618.134 3414.93 610.459 3422.11 599.318C3426.92 591.874 3430.28 583.195 3431.91 573.941C3434.11 559.133 3435.04 544.089 3434.69 529.048V394.556C3434.69 368.292 3431.03 347.53 3423.72 332.27C3414.69 315.127 3401.86 301.413 3386.71 292.698L3323.23 251.172C3316.82 247.604 3311.28 242.105 3307.13 235.198C3303.97 227.378 3302.56 218.688 3303.04 209.998V153.924C3302.52 146.127 3303.68 138.3 3306.4 131.211C3307.6 129.059 3309.25 127.332 3311.17 126.209C3313.1 125.086 3315.24 124.608 3317.37 124.822C3319.7 124.499 3322.06 124.862 3324.25 125.881C3326.44 126.9 3328.4 128.545 3329.95 130.677C3332.29 134.584 3333.46 142.333 3333.46 153.924V238.395H3434.69V114.533C3434.69 82.5943 3427.37 60.354 3412.74 47.8124C3398.12 35.2708 3366.33 29 3317.37 29C3265.3 29 3232.68 36.0392 3219.52 50.1178C3206.35 64.1964 3199.77 97.6155 3199.77 150.375V219.231C3199.77 246.438 3203.33 268.264 3210.45 284.708C3218.34 302.081 3230.3 316.222 3244.82 325.343L3313.86 371.831C3320.23 375.381 3325.76 380.81 3329.95 387.623C3333.16 395.613 3334.57 404.488 3334.05 413.352V512.371C3334.1 514.782 3333.74 517.181 3332.98 519.411C3332.23 521.642 3331.09 523.656 3329.66 525.323C3328.18 527.035 3326.44 528.373 3324.53 529.256C3322.62 530.139 3320.58 530.551 3318.54 530.468C3316.23 530.738 3313.9 530.256 3311.79 529.071C3309.69 527.886 3307.88 526.042 3306.55 523.728C3303.78 516.78 3302.57 509.065 3303.04 501.366V385.669Z" fill="#342166"/>
<path d="M3576.28 385.669H3473.01L3473.01 504.915C3473.01 556.967 3479.59 590.327 3492.75 604.996C3505.92 619.665 3539.12 627 3592.37 627C3628.84 627 3653.56 624.99 3666.53 620.97C3677.95 618.134 3688.16 610.459 3695.34 599.318C3700.16 591.875 3703.51 583.195 3705.15 573.941C3707.35 559.133 3708.28 544.089 3707.93 529.048V394.556C3707.93 368.292 3704.27 347.53 3696.96 332.27C3687.93 315.127 3675.1 301.413 3659.95 292.698L3596.47 251.172C3590.06 247.604 3584.52 242.105 3580.37 235.198C3577.21 227.378 3575.8 218.688 3576.28 209.998V153.924C3575.76 146.127 3576.92 138.3 3579.64 131.211C3580.84 129.059 3582.48 127.332 3584.41 126.209C3586.34 125.086 3588.48 124.608 3590.61 124.822C3592.94 124.499 3595.3 124.862 3597.49 125.881C3599.68 126.9 3601.64 128.545 3603.19 130.677C3605.53 134.584 3606.7 142.333 3606.7 153.924V238.395H3707.92V114.533C3707.92 82.5943 3700.61 60.354 3685.98 47.8124C3671.35 35.2708 3639.56 29 3590.61 29C3538.54 29 3505.92 36.0392 3492.75 50.1178C3479.59 64.1964 3473.01 97.6155 3473.01 150.375V219.225C3473.01 246.432 3476.57 268.26 3483.7 284.708C3491.59 302.081 3503.55 316.222 3518.07 325.343L3587.11 371.831C3593.48 375.381 3599.01 380.81 3603.2 387.623C3606.41 395.613 3607.82 404.488 3607.3 413.352V512.377C3607.35 514.788 3606.99 517.186 3606.23 519.417C3605.48 521.648 3604.34 523.662 3602.91 525.329C3601.43 527.041 3599.68 528.378 3597.78 529.262C3595.87 530.145 3593.83 530.557 3591.79 530.474C3589.48 530.745 3587.14 530.263 3585.04 529.077C3582.93 527.891 3581.12 526.045 3579.79 523.728C3577.02 516.78 3575.81 509.065 3576.28 501.366V385.669Z" fill="#342166"/>
<path d="M141.48 215.424V560.165C140.958 568.121 142.122 576.107 144.862 583.373C146.132 585.62 147.88 587.414 149.924 588.567C151.967 589.72 154.23 590.19 156.475 589.926C158.51 590.1 160.553 589.764 162.476 588.941C164.398 588.117 166.158 586.824 167.646 585.142C168.977 583.338 170 581.237 170.656 578.957C171.312 576.677 171.589 574.263 171.47 571.854V215.424C171.47 204.086 170.295 196.41 167.943 192.397C166.309 190.175 164.251 188.466 161.947 187.417C159.642 186.368 157.161 186.011 154.716 186.376C152.882 186.23 151.043 186.585 149.338 187.413C147.633 188.241 146.104 189.522 144.867 191.161C142.447 194.954 141.246 199.673 141.485 204.449L141.48 215.424ZM38 211.881C38 157.082 44.6635 123.068 57.9905 109.841C71.3174 96.6137 103.95 90 155.887 90C208.998 90 242.119 97.0861 255.252 111.258C268.384 125.43 274.949 158.971 274.946 211.881V563.702C274.946 617.794 268.282 651.866 254.955 665.918C241.628 679.969 208.802 686.996 156.475 687C103.559 687 70.5837 679.797 57.5483 665.39C44.513 650.984 37.9969 617.088 38 563.702V211.881ZM420.171 188.497V390.45C421.346 390.45 423.013 390.569 425.171 390.807C427.328 391.045 428.896 391.164 429.874 391.164C437.714 391.164 443.054 389.511 445.895 386.204C449.249 380.964 450.778 374.356 450.156 367.78V220.39C450.156 205.745 448.784 196.769 446.041 193.463C443.297 190.156 437.712 188.502 429.286 188.502L420.171 188.497ZM316.691 682.748V93.543H434.578C485.926 93.543 518.655 100.571 532.766 114.626C546.877 128.681 553.933 162.28 553.933 215.424V362.814C553.933 416.434 546.829 450.27 532.62 464.321C518.412 478.372 485.927 485.4 435.166 485.404H420.171V682.748H316.691ZM595.381 682.748V93.543H759.717V188.497H698.273V311.086H759.717V407.105H698.273V587.092H759.717V682.748H595.381ZM801.753 682.748V93.543H897.886L949.335 395.41V93.543H1039V682.748H942.575L890.835 393.993V682.748H801.753Z" fill="#342166"/>
<path d="M1780 92.549V682.741H1882.39V406.636H1943.54V310.456H1882.39V187.662H1943.54V92.549H1780Z" fill="#342166"/>
<path d="M1999.41 108.874C1986.15 122.124 1979.52 156.194 1979.52 211.085V563.496C1979.52 616.971 1986 650.924 1998.97 665.354C2011.94 679.785 2044.75 687 2097.41 687C2149.49 686.996 2182.16 679.957 2195.42 665.882C2208.69 651.807 2215.32 617.679 2215.32 563.496V211.085C2215.32 158.087 2208.78 124.49 2195.71 110.294C2182.64 96.098 2149.68 89 2096.83 89C2045.15 89 2012.67 95.6248 1999.41 108.874Z" fill="#342166"/>
<path d="M2256.85 92.549V682.741H2359.84V448.866H2365.98C2375.14 448.866 2381.39 450.996 2384.7 455.255C2388.01 459.513 2389.67 467.794 2389.67 480.097V682.741H2492.94V490.744C2492.94 461.171 2489.33 439.346 2482.12 425.267C2474.9 411.189 2462.51 401.074 2444.96 394.922C2463.1 387.112 2475.63 375.992 2482.55 361.562C2489.48 347.131 2492.94 318.503 2492.94 275.676V214.634C2492.94 161.401 2485.92 127.745 2471.88 113.667C2457.84 99.5882 2425.27 92.549 2374.17 92.549H2256.85Z" fill="#342166"/>
<path d="M2573.1 189.791V682.741H2675.49V189.791H2728.15V92.549H2520.44V189.791H2573.1Z" fill="#342166"/>
<path d="M2758.87 92.549V682.741H2861.85V448.866H2867.99C2877.16 448.866 2883.4 450.996 2886.71 455.255C2890.03 459.513 2891.68 467.794 2891.68 480.097V682.741H2994.95V490.744C2994.95 461.171 2991.35 439.346 2984.13 425.267C2976.91 411.189 2964.53 401.074 2946.97 394.922C2965.11 387.112 2977.64 375.992 2984.57 361.562C2991.49 347.131 2994.95 318.503 2994.95 275.676V214.634C2994.95 161.401 2987.93 127.745 2973.89 113.667C2959.85 99.5882 2927.28 92.549 2876.18 92.549H2758.87Z" fill="#342166"/>
<path d="M3036.2 92.549V682.741H3199.73V586.924H3138.59V406.636H3199.73V310.456H3138.59V187.662H3199.73V92.549H3036.2Z" fill="#342166"/>
<path d="M3341.04 445.669H3237.77L3237.77 564.915C3237.77 616.967 3244.35 650.327 3257.51 664.996C3270.68 679.665 3303.88 687 3357.12 687C3393.6 687 3418.32 684.99 3431.29 680.97C3442.71 678.134 3452.93 670.459 3460.11 659.318C3464.92 651.874 3468.28 643.195 3469.91 633.941C3472.11 619.133 3473.04 604.089 3472.69 589.048V454.556C3472.69 428.292 3469.03 407.53 3461.72 392.27C3452.69 375.127 3439.86 361.413 3424.71 352.698L3361.23 311.172C3354.82 307.604 3349.28 302.105 3345.13 295.198C3341.97 287.378 3340.56 278.688 3341.04 269.998V213.924C3340.52 206.127 3341.68 198.3 3344.4 191.211C3345.6 189.059 3347.25 187.332 3349.17 186.209C3351.1 185.086 3353.24 184.608 3355.37 184.822C3357.7 184.499 3360.06 184.862 3362.25 185.881C3364.44 186.9 3366.4 188.545 3367.95 190.677C3370.29 194.584 3371.46 202.333 3371.46 213.924V298.395H3472.69V174.533C3472.69 142.594 3465.37 120.354 3450.74 107.812C3436.12 95.2708 3404.33 89 3355.37 89C3303.3 89 3270.68 96.0392 3257.52 110.118C3244.35 124.196 3237.77 157.615 3237.77 210.375V279.231C3237.77 306.438 3241.33 328.264 3248.45 344.708C3256.34 362.081 3268.3 376.222 3282.82 385.343L3351.86 431.831C3358.23 435.381 3363.76 440.81 3367.95 447.623C3371.16 455.613 3372.57 464.488 3372.05 473.352V572.371C3372.1 574.782 3371.74 577.181 3370.98 579.411C3370.23 581.642 3369.09 583.656 3367.66 585.323C3366.18 587.035 3364.44 588.373 3362.53 589.256C3360.62 590.139 3358.58 590.551 3356.54 590.468C3354.23 590.738 3351.9 590.256 3349.79 589.071C3347.69 587.886 3345.88 586.042 3344.55 583.728C3341.78 576.78 3340.57 569.065 3341.04 561.366V445.669Z" fill="#342166"/>
<path d="M3614.28 445.669H3511.01L3511.01 564.915C3511.01 616.967 3517.59 650.327 3530.75 664.996C3543.92 679.665 3577.12 687 3630.37 687C3666.84 687 3691.56 684.99 3704.53 680.97C3715.95 678.134 3726.16 670.459 3733.34 659.318C3738.16 651.875 3741.51 643.195 3743.15 633.941C3745.35 619.133 3746.28 604.089 3745.93 589.048V454.556C3745.93 428.292 3742.27 407.53 3734.96 392.27C3725.93 375.127 3713.1 361.413 3697.95 352.698L3634.47 311.172C3628.06 307.604 3622.52 302.105 3618.37 295.198C3615.21 287.378 3613.8 278.688 3614.28 269.998V213.924C3613.76 206.127 3614.92 198.3 3617.64 191.211C3618.84 189.059 3620.48 187.332 3622.41 186.209C3624.34 185.086 3626.48 184.608 3628.61 184.822C3630.94 184.499 3633.3 184.862 3635.49 185.881C3637.68 186.9 3639.64 188.545 3641.19 190.677C3643.53 194.584 3644.7 202.333 3644.7 213.924V298.395H3745.92V174.533C3745.92 142.594 3738.61 120.354 3723.98 107.812C3709.35 95.2708 3677.56 89 3628.61 89C3576.54 89 3543.92 96.0392 3530.75 110.118C3517.59 124.196 3511.01 157.615 3511.01 210.375V279.225C3511.01 306.432 3514.57 328.26 3521.7 344.708C3529.59 362.081 3541.55 376.222 3556.07 385.343L3625.11 431.831C3631.48 435.381 3637.01 440.81 3641.2 447.623C3644.41 455.613 3645.82 464.488 3645.3 473.352V572.377C3645.35 574.788 3644.99 577.186 3644.23 579.417C3643.48 581.648 3642.34 583.662 3640.91 585.329C3639.43 587.041 3637.68 588.378 3635.78 589.262C3633.87 590.145 3631.83 590.557 3629.79 590.474C3627.48 590.745 3625.14 590.263 3623.04 589.077C3620.93 587.891 3619.12 586.045 3617.79 583.728C3615.02 576.78 3613.81 569.065 3614.28 561.366V445.669Z" fill="#342166"/>
<path d="M120.48 176.424V521.165C119.958 529.121 121.122 537.107 123.862 544.373C125.132 546.62 126.88 548.414 128.924 549.567C130.967 550.72 133.23 551.19 135.475 550.926C137.51 551.1 139.553 550.764 141.476 549.941C143.398 549.117 145.158 547.824 146.646 546.142C147.977 544.338 149 542.237 149.656 539.957C150.312 537.677 150.589 535.263 150.47 532.854V176.424C150.47 165.086 149.295 157.41 146.943 153.397C145.309 151.175 143.251 149.466 140.947 148.417C138.642 147.368 136.161 147.011 133.716 147.376C131.882 147.23 130.043 147.585 128.338 148.413C126.633 149.241 125.104 150.522 123.867 152.161C121.447 155.954 120.246 160.673 120.485 165.449L120.48 176.424ZM17 172.881C17 118.082 23.6635 84.0684 36.9905 70.841C50.3174 57.6137 82.9497 51 134.887 51C187.998 51 221.119 58.0861 234.252 72.2583C247.384 86.4304 253.949 119.971 253.946 172.881V524.702C253.946 578.794 247.282 612.866 233.955 626.918C220.628 640.969 187.802 647.996 135.475 648C82.5593 648 49.5837 640.797 36.5483 626.39C23.513 611.984 16.9969 578.088 17 524.702V172.881ZM399.171 149.497V351.45C400.346 351.45 402.013 351.569 404.171 351.807C406.328 352.045 407.896 352.164 408.874 352.164C416.714 352.164 422.054 350.511 424.895 347.204C428.249 341.964 429.778 335.356 429.156 328.78V181.39C429.156 166.745 427.784 157.769 425.041 154.463C422.297 151.156 416.712 149.502 408.286 149.502L399.171 149.497ZM295.691 643.748V54.543H413.578C464.926 54.543 497.655 61.5705 511.766 75.6255C525.877 89.6806 532.933 123.28 532.933 176.424V323.814C532.933 377.434 525.829 411.27 511.62 425.321C497.412 439.372 464.927 446.4 414.166 446.404H399.171V643.748H295.691ZM574.381 643.748V54.543H738.717V149.497H677.273V272.086H738.717V368.105H677.273V548.092H738.717V643.748H574.381ZM780.753 643.748V54.543H876.886L928.335 356.41V54.543H1018V643.748H921.575L869.835 354.993V643.748H780.753Z" fill="white"/>
<path fill-rule="evenodd" clip-rule="evenodd" d="M1955.52 172.085C1955.52 117.194 1962.15 83.1238 1975.41 69.8743C1988.67 56.6248 2021.15 50 2072.83 50C2125.68 50 2158.64 57.098 2171.71 71.2939C2184.78 85.4898 2191.32 119.087 2191.32 172.085V524.496C2191.32 578.679 2184.69 612.807 2171.42 626.882C2158.16 640.957 2125.49 647.996 2073.41 648C2020.75 648 1987.94 640.785 1974.97 626.354C1962 611.924 1955.52 577.971 1955.52 524.496V172.085ZM1756 643.741V53.549H1919.54V148.662H1858.39V271.456H1919.54V367.636H1858.39V643.741H1756ZM2232.85 53.549V643.741H2335.84V409.866H2341.98C2351.14 409.866 2357.39 411.996 2360.7 416.255C2364.01 420.513 2365.67 428.794 2365.67 441.097V643.741H2468.94V451.744C2468.94 422.171 2465.33 400.346 2458.12 386.267C2450.9 372.189 2438.51 362.073 2420.96 355.922C2439.1 348.112 2451.63 336.992 2458.55 322.562C2465.48 308.131 2468.94 279.503 2468.94 236.676V175.634C2468.94 122.401 2461.92 88.7453 2447.88 74.6668C2433.84 60.5882 2401.27 53.549 2350.17 53.549H2232.85ZM2549.1 643.741V150.791H2496.44V53.549H2704.15V150.791H2651.49V643.741H2549.1ZM2734.87 53.549V643.741H2837.85V409.866H2843.99C2853.16 409.866 2859.4 411.996 2862.71 416.255C2866.03 420.513 2867.68 428.794 2867.68 441.097V643.741H2970.96V451.744C2970.96 422.171 2967.35 400.346 2960.13 386.267C2952.91 372.189 2940.53 362.073 2922.97 355.922C2941.11 348.112 2953.64 336.992 2960.57 322.562C2967.49 308.131 2970.96 279.503 2970.96 236.676V175.634C2970.96 122.401 2963.93 88.7453 2949.89 74.6668C2935.85 60.5882 2903.28 53.549 2852.18 53.549H2734.87ZM3012.2 643.741V53.549H3175.73V148.662H3114.59V271.456H3175.73V367.636H3114.59V547.924H3175.73V643.741H3012.2ZM3317.04 406.669H3213.77L3213.77 525.915C3213.77 577.967 3220.35 611.327 3233.51 625.996C3246.68 640.665 3279.88 648 3333.12 648C3369.6 648 3394.32 645.99 3407.29 641.97C3418.71 639.134 3428.93 631.459 3436.11 620.318C3440.92 612.874 3444.28 604.195 3445.91 594.941C3448.11 580.133 3449.04 565.089 3448.69 550.048V415.556C3448.69 389.292 3445.03 368.53 3437.72 353.27C3428.69 336.127 3415.86 322.413 3400.71 313.698L3337.23 272.172C3330.82 268.604 3325.28 263.105 3321.13 256.198C3317.97 248.378 3316.56 239.688 3317.04 230.998V174.924C3316.52 167.127 3317.68 159.3 3320.4 152.211C3321.6 150.059 3323.25 148.332 3325.17 147.209C3327.1 146.086 3329.24 145.608 3331.37 145.822C3333.7 145.499 3336.06 145.862 3338.25 146.881C3340.44 147.9 3342.4 149.545 3343.95 151.677C3346.29 155.584 3347.46 163.333 3347.46 174.924V259.395H3448.69V135.533C3448.69 103.594 3441.37 81.354 3426.75 68.8124C3412.12 56.2708 3380.33 50 3331.37 50C3279.3 50 3246.68 57.0392 3233.52 71.1178C3220.35 85.1964 3213.77 118.615 3213.77 171.375V240.231C3213.77 267.438 3217.33 289.264 3224.45 305.708C3232.34 323.081 3244.3 337.222 3258.82 346.343L3327.86 392.831C3334.23 396.381 3339.76 401.81 3343.95 408.623C3347.16 416.613 3348.57 425.488 3348.05 434.352V533.371C3348.1 535.782 3347.74 538.181 3346.98 540.411C3346.23 542.642 3345.09 544.656 3343.66 546.323C3342.18 548.035 3340.44 549.373 3338.53 550.256C3336.62 551.139 3334.58 551.551 3332.54 551.468C3330.23 551.738 3327.9 551.256 3325.79 550.071C3323.69 548.886 3321.88 547.042 3320.55 544.728C3317.78 537.78 3316.57 530.065 3317.04 522.366V406.669ZM3487.01 406.669H3590.28V522.366C3589.81 530.065 3591.02 537.78 3593.79 544.728C3595.12 547.045 3596.93 548.891 3599.04 550.077C3601.14 551.263 3603.48 551.745 3605.79 551.474C3607.83 551.557 3609.87 551.145 3611.78 550.262C3613.68 549.378 3615.43 548.041 3616.91 546.329C3618.34 544.662 3619.48 542.648 3620.23 540.417C3620.99 538.186 3621.35 535.788 3621.3 533.377V434.352C3621.82 425.488 3620.41 416.613 3617.2 408.623C3613.01 401.81 3607.48 396.381 3601.11 392.831L3532.07 346.343C3517.55 337.222 3505.59 323.081 3497.7 305.708C3490.57 289.26 3487.01 267.432 3487.01 240.225V171.375C3487.01 118.615 3493.59 85.1964 3506.75 71.1178C3519.92 57.0392 3552.54 50 3604.61 50C3653.56 50 3685.35 56.2708 3699.98 68.8124C3714.61 81.354 3721.92 103.594 3721.92 135.533V259.395H3620.7V174.924C3620.7 163.333 3619.53 155.584 3617.19 151.677C3615.64 149.545 3613.68 147.9 3611.49 146.881C3609.3 145.862 3606.94 145.499 3604.61 145.822C3602.48 145.608 3600.34 146.086 3598.41 147.209C3596.48 148.332 3594.84 150.059 3593.64 152.211C3590.92 159.3 3589.76 167.127 3590.28 174.924V230.998C3589.8 239.688 3591.21 248.378 3594.37 256.198C3598.52 263.105 3604.06 268.604 3610.47 272.172L3673.95 313.698C3689.1 322.413 3701.93 336.127 3710.96 353.27C3718.27 368.53 3721.93 389.292 3721.93 415.556V550.048C3722.28 565.089 3721.35 580.133 3719.15 594.941C3717.51 604.195 3714.16 612.875 3709.34 620.318C3702.16 631.459 3691.95 639.134 3680.53 641.97C3667.56 645.99 3642.84 648 3606.37 648C3553.12 648 3519.92 640.665 3506.75 625.996C3493.59 611.327 3487.01 577.967 3487.01 525.915L3487.01 406.669ZM2072.49 175.634V520.952C2071.98 528.922 2073.13 536.921 2075.86 544.199C2077.12 546.45 2078.86 548.248 2080.9 549.402C2082.93 550.557 2085.18 551.027 2087.42 550.764C2089.44 550.937 2091.48 550.601 2093.39 549.777C2095.3 548.952 2097.05 547.656 2098.53 545.971C2099.86 544.165 2100.88 542.059 2101.53 539.776C2102.18 537.492 2102.46 535.074 2102.34 532.661V175.634C2102.34 164.277 2101.17 156.589 2098.83 152.568C2097.2 150.343 2095.16 148.631 2092.86 147.58C2090.57 146.53 2088.1 146.172 2085.67 146.538C2083.84 146.392 2082.01 146.746 2080.31 147.576C2078.62 148.406 2077.1 149.689 2075.86 151.33C2073.46 155.13 2072.26 159.857 2072.5 164.64L2072.49 175.634ZM2366 180.926V261.804L2366 277.77C2366 286.757 2364.58 292.847 2361.74 296.04C2357.03 299.873 2351.35 301.57 2345.71 300.83C2344.73 300.83 2343.16 300.711 2341 300.473C2338.84 300.234 2337.18 300.115 2336 300.115V149H2345.12C2353.55 149 2359.13 150.655 2361.88 153.966C2364.62 157.277 2366 166.264 2366 180.926ZM2868 261.804V180.926C2868 166.264 2866.62 157.277 2863.88 153.966C2861.13 150.655 2855.55 149 2847.12 149H2838V300.115C2839.18 300.115 2840.84 300.234 2843 300.473C2845.16 300.711 2846.73 300.83 2847.71 300.83C2853.35 301.57 2859.03 299.873 2863.74 296.04C2866.58 292.847 2868 286.757 2868 277.77L2868 261.804Z" fill="white"/>
<path d="M1302.5 75C1246.5 69 1209.17 83.8333 1197.5 92L1073 636.5L1077.5 640.5C1076 647.5 1072.1 665 1068.5 679C1064.9 693 1070 701.167 1073 703.5C1080.5 708.333 1098 719.8 1108 727C1115.6 734.2 1127.5 730.667 1132.5 728C1208.17 696 1362.8 630 1376 622C1392.5 612 1412.5 607.5 1428 606.5C1443.5 605.5 1456 614 1461.5 616C1467 618 1705.5 732 1706.5 732.5C1707.5 733 1717 729.5 1719.5 728C1722 726.5 1738 711.5 1739 695.5C1740 679.5 1651 207 1640.5 175.5C1630 148.5 1612 145.5 1610.5 143.5C1609 141.5 1606.5 139.5 1598 132C1593 103 1572 91 1551 88C1530 85 1499.5 90 1496 90C1494.4 88.8 1484 78.5 1479 73.5C1476 70 1441 15.5 1403 0C1356.5 14 1339.5 28 1302.5 75Z" fill="#342166"/>
<path fill-rule="evenodd" clip-rule="evenodd" d="M1089.23 667.99L1212.66 122.652C1212.66 122.652 1245.21 99.458 1316.53 106.127C1357.24 51.757 1388.7 39.766 1418.89 31.011C1441.93 38.532 1494.03 90.799 1503.18 122.652C1551.11 113.813 1590.53 115.57 1607.05 143.684C1623.57 171.798 1706.39 663.49 1706.39 663.49C1702.51 669.484 1697.96 675.025 1692.85 680.01L1450.5 564.33C1450.5 564.33 1414.09 538.62 1361.69 568.84C1293.98 597.03 1105.79 680.01 1105.79 680.01L1089.23 667.99ZM1140.41 631.94C1129.19 610.57 1204.47 254.681 1223.2 184.247C1233.78 147.384 1245.96 129.268 1263.84 128.661C1262.35 164.678 1260.73 175.139 1266.85 181.242C1283.18 181.242 1386.04 86.442 1406.84 67.066C1403.78 207.454 1403.83 490.72 1403.83 490.72C1403.83 490.72 1174.08 614.64 1140.41 631.94ZM1535.61 145.119C1537.54 145.123 1539.43 145.699 1541.03 146.775C1542.64 147.851 1543.89 149.378 1544.62 151.164C1545.36 152.95 1545.55 154.913 1545.17 156.807C1544.79 158.701 1543.86 160.44 1542.49 161.804C1541.12 163.169 1539.38 164.097 1537.49 164.473C1535.59 164.848 1533.63 164.653 1531.85 163.913C1530.06 163.173 1528.54 161.921 1527.47 160.315C1526.39 158.709 1525.82 156.82 1525.82 154.889C1525.82 153.605 1526.08 152.333 1526.57 151.147C1527.06 149.961 1527.78 148.883 1528.69 147.976C1529.6 147.069 1530.68 146.349 1531.87 145.859C1533.05 145.369 1534.33 145.117 1535.61 145.119Z" fill="white"/>
<path d="M1576.94 444.15L1519.74 427.62L1555.87 417.11L1569.41 345L1576.94 444.15Z" fill="#342166"/>
<path d="M1263.84 319.46C1253.1 365.38 1223.2 454.66 1223.2 454.66C1215.04 379.38 1236.85 286.753 1244.28 281.902C1251.71 277.051 1343.98 226.737 1358.68 248.851C1315.22 270.96 1295 278.62 1263.84 319.46Z" fill="white"/>
<circle cx="1536" cy="155" r="10" fill="#342166"/>
</svg>
