<svg width="163" height="220" viewBox="0 0 163 220" fill="none" xmlns="http://www.w3.org/2000/svg">
<path d="M99.518 0H12.63C6.01301 0 0.630005 5.383 0.630005 12V207.376C0.630005 213.993 6.01301 219.376 12.63 219.376H150.747C157.364 219.376 162.747 213.993 162.747 207.376V59.227C162.747 56.023 161.499 53.01 159.233 50.743L107.869 3.383C105.619 1.2 102.661 0 99.518 0ZM147.747 204.376H15.63V15H87.398V55.236C87.398 64.121 94.623 71.35 103.503 71.35H147.747V204.376V204.376ZM103.503 56.35C102.894 56.35 102.398 55.85 102.398 55.236V23.656L137.366 56.349H103.503V56.35ZM37.499 97.805C32.359 97.805 28.178 101.987 28.178 107.126C28.178 112.266 32.36 116.447 37.499 116.447C42.639 116.447 46.82 112.265 46.82 107.126C46.82 101.987 42.638 97.805 37.499 97.805ZM54.499 99.627H133.999V114.627H54.499V99.627ZM37.499 127.805C32.359 127.805 28.178 131.987 28.178 137.126C28.178 142.265 32.36 146.447 37.499 146.447C42.639 146.447 46.82 142.265 46.82 137.126C46.82 131.987 42.638 127.805 37.499 127.805ZM54.499 129.626H133.999V144.626H54.499V129.626ZM37.499 157.805C32.359 157.805 28.178 161.987 28.178 167.126C28.178 172.265 32.36 176.447 37.499 176.447C42.639 176.447 46.82 172.265 46.82 167.126C46.82 161.987 42.638 157.805 37.499 157.805ZM54.499 159.626H133.999V174.626H54.499V159.626Z" fill="white"/>
</svg>
