<svg width="115" height="80" viewBox="0 0 115 80" fill="none" xmlns="http://www.w3.org/2000/svg">
<path fill-rule="evenodd" clip-rule="evenodd" d="M39.9583 39.9583C50.9754 39.9583 59.9375 30.9963 59.9375 19.9792C59.9375 8.96208 50.9754 0 39.9583 0C28.9412 0 19.9792 8.96208 19.9792 19.9792C19.9792 30.9963 28.9412 39.9583 39.9583 39.9583ZM0 69.9271C0 56.6267 26.6008 49.9479 39.9583 49.9479C53.3158 49.9479 79.9167 56.6267 79.9167 69.9271V79.9167H0V69.9271ZM39.9583 61.3646C29.7404 61.3646 18.1525 65.1892 13.3575 68.5H66.5591C61.7641 65.1892 50.1762 61.3646 39.9583 61.3646ZM48.5208 19.9792C48.5208 15.2412 44.6963 11.4167 39.9583 11.4167C35.2204 11.4167 31.3958 15.2412 31.3958 19.9792C31.3958 24.7171 35.2204 28.5417 39.9583 28.5417C44.6963 28.5417 48.5208 24.7171 48.5208 19.9792ZM80.145 50.2904C86.7666 55.0854 91.3333 61.4787 91.3333 69.9271V79.9166H114.167V69.9271C114.167 58.3962 94.1875 51.8316 80.145 50.2904ZM94.1875 19.9792C94.1875 30.9963 85.2254 39.9583 74.2083 39.9583C71.1258 39.9583 68.2717 39.2163 65.6458 37.9604C69.2421 32.88 71.3542 26.6579 71.3542 19.9792C71.3542 13.3004 69.2421 7.07833 65.6458 1.99792C68.2717 0.742083 71.1258 0 74.2083 0C85.2254 0 94.1875 8.96208 94.1875 19.9792Z" fill="white"/>
</svg>
