<svg width="663" height="663" viewBox="0 0 663 663" fill="none" xmlns="http://www.w3.org/2000/svg">
<path fill-rule="evenodd" clip-rule="evenodd" d="M93.3762 289.854C110.435 189.25 189.485 109.742 289.854 91.9988V117.425C203.313 134.567 135.25 203.077 118.767 289.854H93.3762ZM289.854 569.335V543.91C203.867 526.877 136.123 459.133 119.09 373.146H93.6647C111.31 472.961 190.039 551.69 289.854 569.335ZM373.146 569.624V544.233C459.923 527.75 528.433 459.687 545.576 373.146H571.001C553.258 473.515 473.75 552.565 373.146 569.624ZM373.146 91.7104C474.306 108.864 554.136 188.694 571.29 289.854H545.899C529.31 202.521 460.479 133.69 373.146 117.101V91.7104Z" fill="black"/>
<rect x="316.508" width="29.9849" height="228.219" fill="black"/>
<rect x="316.508" y="434.781" width="29.9849" height="228.219" fill="black"/>
<rect y="346.492" width="29.9849" height="228.219" transform="rotate(-90 0 346.492)" fill="black"/>
<rect x="434.781" y="346.492" width="29.9849" height="228.219" transform="rotate(-90 434.781 346.492)" fill="black"/>
</svg>
