<svg xmlns="http://www.w3.org/2000/svg" width="83" height="46" viewBox="0 0 83 46" fill="none">
<path d="M73.4442 9.499C74.0694 9.499 74.5762 8.55567 74.5762 7.392C74.5762 6.22834 74.0694 5.285 73.4442 5.285C72.819 5.285 72.3122 6.22834 72.3122 7.392C72.3122 8.55567 72.819 9.499 73.4442 9.499Z" fill="white"/>
<path d="M77.7562 7.39299C77.7562 8.55699 77.0962 9.49899 76.4732 9.49899C75.8482 9.49899 76.0902 8.55499 76.0902 7.39299C76.0902 6.23099 75.8482 5.28699 76.4732 5.28699C77.0982 5.28699 77.7552 6.22899 77.7552 7.39299H77.7562Z" fill="white"/>
<path d="M56.9962 29.391C56.9962 29.391 60.1992 30.035 60.3292 33.494C60.3292 33.494 52.4492 34.714 53.9222 40.991C53.9222 40.991 51.0392 40.671 50.3322 39.643C49.6282 38.62 48.6682 36.248 49.6282 34.455C50.5882 32.658 53.8562 28.685 56.9982 29.391H56.9962Z" fill="white"/>
<path d="M54.4732 41.479L53.8752 41.413C53.5552 41.378 50.7752 41.038 49.9752 39.883C49.1252 38.655 48.2352 36.143 49.2452 34.253C50.1852 32.503 53.1252 28.883 56.2352 28.883C56.5152 28.883 56.8052 28.913 57.0852 28.976C57.1052 28.981 60.6052 29.726 60.7452 33.478L60.7552 33.855L60.3752 33.915C60.3352 33.92 56.5352 34.539 54.8952 36.975C54.1552 38.072 53.9652 39.39 54.3152 40.895L54.4452 41.479H54.4732ZM56.2432 29.732C53.5432 29.732 50.8282 33.122 50.0032 34.662C49.1782 36.202 49.9832 38.392 50.6832 39.412C51.0452 39.942 52.3602 40.322 53.3912 40.502C53.1612 39.002 53.4372 37.662 54.2112 36.522C55.7512 34.242 58.7962 33.402 59.8772 33.172C59.5672 30.402 56.9472 29.842 56.9172 29.832C56.6972 29.782 56.4772 29.762 56.2472 29.762L56.2432 29.732Z" fill="white"/>
<path d="M59.8802 33.044C59.8802 33.044 62.9552 36.246 62.2502 39.064L61.1172 39.641C61.1172 39.641 60.9872 35.041 58.5172 33.979L59.8872 33.044H59.8802Z" fill="white"/>
<path d="M60.7132 40.323L60.6932 39.653C60.6912 39.61 60.5332 35.311 58.3392 34.369L57.6272 34.063L59.9362 32.491L60.1862 32.749C60.3182 32.887 63.4162 36.156 62.6622 39.169L62.6152 39.356L60.7052 40.323H60.7132ZM59.3032 33.951C60.9102 35.141 61.3672 37.746 61.4932 38.971L61.8782 38.778C62.2602 36.705 60.4732 34.381 59.8112 33.606L59.3042 33.951H59.3032Z" fill="white"/>
<path d="M58.5062 33.978C58.5062 33.978 60.4982 34.582 61.1162 39.64C61.1162 39.64 60.2632 41.81 58.0212 40.6C58.0212 40.6 57.5412 36.69 55.8912 35.34L58.5072 33.97L58.5062 33.978Z" fill="white"/>
<path d="M59.2962 41.397C58.8292 41.397 58.3322 41.255 57.8182 40.977C57.7587 40.9445 57.7078 40.8984 57.6695 40.8424C57.6313 40.7865 57.6068 40.7222 57.5982 40.655C57.5942 40.618 57.1202 36.898 55.6222 35.675C55.5682 35.6302 55.526 35.5729 55.4994 35.508C55.4728 35.443 55.4626 35.3726 55.4697 35.3028C55.4769 35.233 55.5011 35.166 55.5402 35.1078C55.5794 35.0496 55.6323 35.0019 55.6942 34.969L58.3102 33.602C58.4102 33.552 58.5232 33.542 58.6302 33.572C58.8602 33.642 60.9042 34.412 61.5382 39.592C61.5482 39.662 61.5382 39.732 61.5122 39.802C61.4862 39.872 60.8672 41.402 59.2952 41.402L59.2962 41.397ZM58.4112 40.324C58.7282 40.471 59.0252 40.547 59.2952 40.547C60.1152 40.547 60.5452 39.833 60.6752 39.574C60.1852 35.804 58.9252 34.717 58.5052 34.454L56.5952 35.454C57.8052 36.894 58.2852 39.529 58.4052 40.324H58.4112Z" fill="white"/>
<path d="M55.8922 35.348C55.8922 35.348 58.2782 38.298 58.0222 40.604C58.0222 40.604 56.8682 42.208 54.2422 40.991C54.2422 40.987 52.8652 37.527 55.8922 35.348Z" fill="white"/>
<path d="M56.0822 41.871C55.4522 41.871 54.7722 41.705 54.0622 41.376L53.7182 41.216L53.7932 40.992C53.5412 40.222 52.7532 37.092 55.6452 35.012L55.9652 34.782L56.2152 35.102C56.3152 35.232 58.7052 38.222 58.4352 40.672L58.4152 40.782L58.3452 40.872C58.3052 40.922 57.5852 41.892 56.0552 41.892L56.0822 41.871ZM54.5822 40.678C55.1192 40.908 55.6222 41.022 56.0822 41.022C56.9492 41.022 57.4392 40.612 57.6102 40.432C57.7162 38.782 56.3832 36.742 55.8132 35.952C53.8252 37.652 54.3712 40.002 54.5832 40.682L54.5822 40.678Z" fill="white"/>
<path d="M49.6912 33.803C49.6912 33.803 53.7282 35.348 57.7642 27.395C57.7642 27.395 55.5842 28.165 53.7282 27.395C53.7282 27.395 51.7182 33.045 49.6912 33.803Z" fill="white"/>
<path d="M50.5512 34.207C49.9612 34.207 49.6052 34.073 49.5912 34.067L48.8912 33.799L49.5912 33.536C51.1882 32.939 52.9642 28.729 53.4612 27.302L53.5592 27.022L53.8372 27.142C54.3572 27.362 54.9472 27.462 55.6072 27.462C56.7372 27.462 57.6672 27.142 57.6772 27.142L58.3472 26.912L58.0272 27.542C55.0772 33.362 52.0872 34.232 50.5672 34.232L50.5512 34.207ZM50.4892 33.64H50.5512C51.8932 33.64 54.5042 32.87 57.2132 27.83C56.8032 27.92 56.2332 28.01 55.5992 28.01C54.9822 28.01 54.4112 27.92 53.8992 27.75C53.4972 28.94 52.0442 32.33 50.4892 33.63V33.64ZM27.3962 33.69C27.3962 33.69 23.8082 34.59 25.6022 37.79C27.1542 40.55 29.7022 40.35 29.7022 40.35C29.7022 40.35 29.5762 37.01 32.3942 35.73C32.3942 35.72 33.5472 32.91 27.3962 33.67V33.69Z" fill="white"/>
<path d="M45.7202 34.586C45.7202 34.586 41.4282 32.15 37.6482 32.726C33.8662 33.303 27.8442 35.418 28.8702 40.036C29.8952 44.646 36.0452 44.389 36.0452 44.389C36.0452 44.389 38.9252 36.956 45.7152 37.535V34.585L45.7202 34.586Z" fill="white"/>
<path d="M35.8722 44.816C34.8082 44.816 29.4472 44.589 28.4552 40.126C28.1552 38.781 28.3852 37.538 29.1452 36.433C31.1552 33.49 36.1052 32.531 37.5752 32.307C37.9752 32.244 38.4052 32.213 38.8452 32.213C42.3452 32.213 45.7652 34.135 45.9152 34.216L46.1252 34.338V37.998L45.6652 37.958C39.2552 37.412 36.4452 44.474 36.4152 44.543L36.3152 44.801L35.8452 44.816H35.8722ZM38.8592 33.063C38.4754 33.062 38.092 33.0898 37.7122 33.146C34.8592 33.582 31.2952 34.798 29.8472 36.913C29.2372 37.816 29.0472 38.836 29.2872 39.943C30.1172 43.643 34.6172 43.949 35.7672 43.963C36.3772 42.636 39.3372 36.871 45.2972 37.083V34.841C44.5072 34.428 41.6572 33.063 38.8672 33.063H38.8592Z" fill="white"/>
<path d="M43.0292 44.966C43.0292 44.966 44.2472 44.386 44.7592 43.492C44.7592 43.492 45.1442 39.232 43.2852 37.682C43.2852 37.682 41.6152 37.452 40.3952 39.192C40.3952 39.192 43.0152 42.672 43.0152 44.972L43.0292 44.966Z" fill="white"/>
<path d="M43.0292 45.391C42.9734 45.3911 42.918 45.3802 42.8664 45.3589C42.8148 45.3376 42.7679 45.3063 42.7284 45.2668C42.6889 45.2273 42.6576 45.1804 42.6363 45.1288C42.615 45.0772 42.6041 45.0218 42.6042 44.966C42.6042 42.936 40.3292 39.799 40.0692 39.448C40.0214 39.3833 39.9919 39.3069 39.9838 39.2268C39.9757 39.1467 39.9893 39.066 40.0232 38.993C41.4532 36.943 43.3452 37.256 43.3432 37.256C43.4212 37.266 43.4982 37.301 43.5582 37.351C45.5642 39.031 45.1982 43.349 45.1812 43.531C45.176 43.5922 45.1575 43.6516 45.1272 43.705C44.5572 44.705 43.2672 45.325 43.2172 45.351C43.1606 45.3766 43.0993 45.3902 43.0372 45.391H43.0292ZM40.9322 39.189C41.5522 40.059 43.0622 42.339 43.3902 44.262C43.7102 44.052 44.1002 43.742 44.3402 43.362C44.3802 42.762 44.5282 39.432 43.1122 38.092C42.7322 38.092 41.7622 38.192 40.9322 39.192V39.189Z" fill="white"/>
<path d="M43.0292 44.966C43.0292 44.966 37.7532 46.146 36.1622 44.112C36.1622 44.112 37.2502 40.262 39.8502 39.312C42.4522 38.372 42.6442 42.922 43.0302 44.972L43.0292 44.966Z" fill="white"/>
<path d="M39.8522 45.731C37.8862 45.731 36.5322 45.274 35.8272 44.374C35.7867 44.3211 35.7592 44.2594 35.747 44.1939C35.7349 44.1284 35.7384 44.0609 35.7572 43.997C35.8072 43.831 36.9372 39.921 39.7072 38.913C39.9872 38.81 40.2572 38.759 40.5172 38.759C42.5372 38.759 42.9772 41.703 43.2872 43.853C43.3472 44.235 43.3972 44.588 43.4572 44.888C43.5072 45.113 43.3572 45.331 43.1372 45.381C43.0772 45.395 41.5572 45.731 39.8672 45.731H39.8522ZM36.6402 44.011C37.2202 44.581 38.3222 44.881 39.8522 44.881C40.9482 44.881 41.9922 44.726 42.5402 44.628C42.5058 44.4116 42.4732 44.1949 42.4422 43.978C42.1862 42.238 41.7992 39.61 40.5122 39.61C40.3562 39.61 40.1822 39.64 39.9962 39.71C37.9662 40.44 36.9082 43.21 36.6402 44.01V44.011Z" fill="white"/>
<path d="M45.7202 37.531C45.7202 37.531 42.5982 37.019 43.9682 38.511C45.4402 40.116 44.4532 43.898 44.4532 43.898C45.8162 44.568 46.6162 43.105 46.6162 43.105C47.7062 39.185 45.7202 37.531 45.7202 37.531V37.531Z" fill="white"/>
<path d="M45.1562 44.501C44.8612 44.501 44.5612 44.426 44.2662 44.281L43.9542 44.127L44.0412 43.791C44.2982 42.801 44.7312 39.974 43.6542 38.799C43.4992 38.629 43.0262 38.115 43.2542 37.594C43.4812 37.081 44.1772 37.022 44.6822 37.022C45.2322 37.022 45.7662 37.112 45.7882 37.112L45.9022 37.132L45.9922 37.212C46.0822 37.292 48.1752 39.092 47.0252 43.232C46.9552 43.372 46.3252 44.512 45.1552 44.512L45.1562 44.501ZM44.9512 43.627C45.7092 43.787 46.2392 42.907 46.2442 42.899C47.0942 39.806 45.8642 38.281 45.5262 37.932C45.3502 37.912 45.0142 37.872 44.6832 37.872C44.3062 37.872 44.1282 37.922 44.0552 37.952C44.0852 37.982 44.1452 38.082 44.2752 38.232C45.6052 39.692 45.1552 42.592 44.9452 43.642L44.9512 43.627ZM44.8362 35.419C44.7883 35.4187 44.7411 35.4075 44.6982 35.386L44.5742 35.321C44.5392 35.301 41.8802 33.934 38.4412 33.934C36.4192 33.934 34.5112 34.4 32.7752 35.318L32.6652 35.378C32.6186 35.4015 32.5673 35.4141 32.5152 35.415H32.3852C31.4652 35.415 24.5452 33.865 23.7652 33.689L12.5052 27.787C0.2762 20.831 -0.4138 18.691 0.1262 17.685C0.4162 17.148 1.2162 16.801 2.1632 16.801C2.4432 16.801 2.7332 16.833 3.0132 16.895C4.2932 17.175 5.5632 17.515 6.8982 17.875C9.1282 18.471 11.4282 19.088 13.9312 19.458C17.1462 13.378 24.4662 3.421 38.0262 3.421C49.6992 3.421 51.8602 7.745 53.5962 11.219C54.5662 13.154 55.3292 14.681 57.5362 15.349C58.1912 15.329 61.9632 15.173 63.0362 12.687C63.3912 11.864 63.6812 10.77 63.9892 9.611C64.8942 6.198 65.9062 2.379 69.1692 2.379C69.2532 2.379 69.3392 2.383 69.4292 2.387C69.5492 2.393 69.6592 2.473 69.6992 2.589L69.3752 3.199C69.4152 3.309 69.9252 3.563 69.8352 3.644C69.8352 3.646 69.6952 4.02 69.6452 4.31C69.4352 5.16 69.3352 5.99 69.3352 6.85C69.3352 10.07 70.8052 12.89 72.4852 12.89C73.1452 12.89 73.8752 12.26 74.3752 11.65L74.7952 11.1C74.8452 11.01 74.9652 10.79 75.0652 10.79H75.0752C75.1852 10.79 75.2752 10.85 75.3252 10.95C75.3252 10.95 75.7052 11.64 76.3052 11.79C76.3752 11.81 76.4552 11.82 76.5452 11.82C76.8152 11.82 77.1252 11.74 77.4252 11.67C77.7252 11.59 78.0252 11.52 78.2852 11.52C79.2252 11.55 80.9752 12.76 81.7252 14.12C82.2052 14.99 82.2352 15.82 81.8152 16.53C80.5352 18.7 79.2852 19.08 77.0252 19.75C76.5852 19.88 76.1052 20.02 75.5652 20.19C74.9852 20.56 71.5852 22.57 68.0052 22.57H67.9362C66.9342 24.045 63.3962 28.13 55.0862 28.13C54.6802 28.13 54.2632 28.12 53.8362 28.1C53.1012 29.993 50.5902 35.14 44.9762 35.365L44.8262 35.372L44.8362 35.419Z" fill="white"/>
<path d="M44.7122 35.055C44.6862 35.037 41.9792 33.635 38.4422 33.635C36.3662 33.635 34.4122 34.115 32.6352 35.053L32.5152 35.116H32.3852C31.4652 35.116 23.8252 33.396 23.8252 33.396L12.6462 27.521C6.6662 24.119 -0.5468 19.568 0.3862 17.828C0.6942 17.265 1.7962 16.934 2.9532 17.188C6.4532 17.956 10.0032 19.206 14.1032 19.785C17.2962 13.657 24.5462 3.72102 38.0262 3.72102C49.5092 3.72102 51.6292 7.95102 53.3292 11.353C54.2892 13.271 55.1192 14.93 57.4492 15.637C58.1862 15.631 62.1612 15.471 63.3112 12.807C63.6812 11.952 63.9732 10.831 64.2912 9.64502C65.1512 6.38202 66.1332 2.67902 69.1712 2.67902C69.2452 2.67902 69.3312 2.68202 69.4112 2.68602L69.1142 3.51102C69.1142 3.51102 69.4142 3.86402 69.3572 4.26602C69.1572 5.11802 69.0572 5.97402 69.0572 6.85802C69.0572 10.295 70.6372 13.201 72.5072 13.201C73.2772 13.201 74.1672 13.026 74.7872 12.097L75.0972 11.119C75.0972 11.119 75.5272 11.921 76.2672 12.112C76.8972 12.282 77.7972 11.842 78.3572 11.852C79.5072 11.892 82.7672 14.432 81.6072 16.422C80.1572 18.902 78.8372 18.902 75.5372 19.962C74.9772 20.312 71.5872 22.322 68.0672 22.322H67.7972C67.0372 23.512 63.6272 27.892 55.1072 27.892C54.6372 27.892 54.1572 27.882 53.6572 27.852C53.0972 29.392 50.6772 34.902 44.9872 35.132L44.8472 35.142L44.7272 35.082L44.7122 35.055Z" fill="white"/>
<path d="M78.8822 12.855C76.4702 11.518 75.4252 11.835 75.0952 12.047C74.2452 13.389 73.2752 13.399 72.2852 13.399C70.0952 13.399 68.5452 10.646 68.5452 6.859C68.5452 5.912 68.6552 5.012 68.8552 4.192C68.9352 3.592 69.3752 3.202 69.3752 3.202C65.5252 2.952 65.1852 9.742 63.7752 13.012C62.3652 16.282 57.3652 16.152 57.3652 16.152C50.3152 14.102 55.6952 4.242 38.0152 4.242C21.9862 4.231 15.0962 19.131 14.2862 20.621C9.24419 19.795 2.02619 16.533 1.12619 18.201C0.232193 19.867 12.8962 27.077 12.8962 27.077L24.4502 33.45C24.4502 33.45 31.4972 34.6 32.3942 34.6C38.6722 31.27 44.9522 34.6 44.9522 34.6C51.2302 34.34 53.2802 27.29 53.2802 27.29C64.1702 28.06 67.5032 21.78 67.5032 21.78C71.3482 22.03 75.3192 19.47 75.3192 19.47C76.4782 19.1863 77.5974 18.7597 78.6512 18.2C79.5892 17.7 80.5112 17.12 80.9332 16.28C81.8312 14.49 78.8832 12.84 78.8832 12.84L78.8822 12.855Z" fill="white"/>
<path d="M13.0022 22.781C13.0022 22.781 13.9952 22.256 18.1292 23.529C20.5192 24.269 24.2352 28.407 27.1412 29.177C27.1412 29.177 30.0012 31.099 33.5912 29.177C33.5912 29.177 35.0852 27.679 38.5882 27.853C42.0882 28.021 44.8242 29.517 46.5322 29.429C48.2402 29.345 50.2922 26.312 50.9322 23.279C51.5722 20.249 53.5772 14.567 55.9722 13.712C58.3622 12.862 58.7892 15.812 58.7892 15.812C58.7892 15.812 55.2022 17.862 54.9872 20.382C54.9872 20.382 54.2372 25.232 53.5872 27.322C52.9372 29.422 52.1872 35.022 45.7272 35.192C45.7272 35.192 42.3672 33.322 38.3372 33.472C35.0972 33.602 34.4072 34.622 32.1072 34.842C29.7572 35.072 27.0172 34.352 24.4672 33.472C19.4172 31.732 15.4872 29.222 10.8072 26.472C10.8072 26.482 6.40722 23.772 13.0272 22.812L13.0022 22.781Z" fill="white"/>
<path d="M45.6142 35.607L45.5122 35.55C45.4822 35.53 42.2192 33.73 38.3442 33.87C36.5682 33.94 35.5962 34.28 34.6562 34.61C33.9322 34.86 33.1842 35.13 32.1332 35.23C30.0532 35.43 27.6552 34.98 24.3082 33.83C19.8182 32.28 16.2942 30.18 12.2142 27.76L10.5642 26.78L10.5722 26.76C10.0662 26.51 8.99223 25.6 8.92523 24.69C8.79523 22.95 11.8052 22.49 12.8852 22.34C13.2252 22.21 14.2952 21.87 18.2452 23.09C19.4252 23.45 20.8452 24.55 22.3452 25.71C24.0252 27 25.7552 28.34 27.2352 28.73L27.3552 28.79C27.3652 28.79 28.5552 29.57 30.2952 29.57C31.3152 29.57 32.3252 29.31 33.3052 28.79C33.6152 28.51 35.2452 27.23 38.5752 27.39C40.5352 27.48 42.2752 27.99 43.6852 28.4C44.7452 28.71 45.6552 28.97 46.3452 28.97H46.4652C47.9052 28.9 49.8552 26.07 50.4652 23.16C50.9452 20.92 52.9352 14.3 55.7752 13.28C56.1052 13.16 56.4352 13.1 56.7352 13.1C58.3552 13.1 59.0252 14.81 59.1552 15.71L59.1952 15.99L58.9452 16.14C58.9052 16.16 55.5452 18.11 55.3552 20.37C55.3152 20.6 54.5852 25.3 53.9352 27.4C53.8652 27.61 53.7952 27.87 53.7252 28.15C53.0452 30.69 51.7752 35.41 45.6752 35.57H45.5552L45.6142 35.607ZM38.7962 33.021C42.3292 33.021 45.2282 34.441 45.8202 34.751C51.1902 34.558 52.2972 30.435 52.9602 27.965C53.0382 27.673 53.1082 27.411 53.1782 27.188C53.8102 25.148 54.5582 20.358 54.5682 20.308C54.7622 18.018 57.4382 16.151 58.3102 15.598C58.1752 15.078 57.7732 13.981 56.7882 13.981C56.5832 13.981 56.3582 14.025 56.1152 14.111C54.0352 14.851 52.0352 20.071 51.3452 23.367C50.7152 26.354 48.5852 29.753 46.5452 29.853L46.3752 29.857C45.5652 29.857 44.5952 29.577 43.4752 29.251C42.0452 28.837 40.4252 28.366 38.5552 28.277C35.3052 28.104 33.8852 29.465 33.8752 29.479L33.7752 29.551C32.6552 30.151 31.4852 30.455 30.3052 30.455C28.5052 30.455 27.2452 29.75 26.9452 29.569C25.3152 29.115 23.5352 27.743 21.8152 26.414C20.3752 25.304 19.0152 24.254 17.9752 23.934C14.2152 22.776 13.1552 23.164 13.1452 23.166L13.0252 23.201C10.2252 23.604 9.79522 24.268 9.73522 24.535C9.62522 25.079 10.5752 25.845 10.9452 26.065L12.6052 27.048C16.6452 29.446 20.1352 31.518 24.5452 33.038C26.5052 33.716 29.5152 34.634 32.0052 34.398C32.9452 34.305 33.6152 34.07 34.3252 33.82C35.2752 33.48 36.3552 33.1 38.2652 33.02C38.4252 33.01 38.5852 33.01 38.7452 33.01L38.7962 33.021Z" fill="white"/>
<path d="M19.8362 30.204C19.8362 30.204 18.3832 27.557 15.2242 26.787C12.0642 26.017 11.4642 26.787 11.4642 26.787C11.4642 26.787 7.19419 32.084 7.62219 36.867C8.04919 41.65 11.0392 41.137 11.0392 41.137C11.0392 41.137 11.5212 35.842 14.3992 35.497C17.2752 35.159 19.8372 35.242 19.8372 35.242V30.212L19.8362 30.204Z" fill="white"/>
<path d="M10.7902 41.578C10.0452 41.578 7.58623 41.241 7.20023 36.904C6.76023 32.007 10.9552 26.742 11.1342 26.52C11.2222 26.4 11.6192 26.01 12.8442 26.01C13.5262 26.01 14.3602 26.13 15.3242 26.36C18.6272 27.16 20.1442 29.87 20.2082 29.98L20.2612 30.07V35.65L19.8232 35.63C19.8192 35.63 19.5482 35.62 19.0862 35.62C18.1842 35.62 16.3822 35.66 14.4482 35.88C12.3682 36.13 11.5882 39.76 11.4632 41.13L11.4332 41.45L11.1132 41.51C11.1112 41.51 10.9912 41.53 10.7902 41.53V41.578ZM12.8452 26.868C12.0152 26.868 11.7752 27.074 11.7752 27.078C11.7452 27.105 7.63523 32.275 8.04523 36.828C8.33523 40.151 9.87523 40.676 10.6552 40.724C10.8252 39.449 11.6052 35.404 14.3452 35.077C16.5852 34.812 18.5952 34.803 19.4052 34.81V30.321C19.1252 29.871 17.7252 27.837 15.1152 27.201C14.2152 26.981 13.4452 26.869 12.8352 26.869L12.8452 26.868Z" fill="white"/>
<path d="M11.0382 41.139C11.0382 41.139 12.6602 43.189 16.5062 42.676C16.5062 42.676 17.5312 37.434 16.5062 35.316C16.5062 35.316 14.4422 34.641 12.8242 36.352C11.2082 38.062 11.0382 41.142 11.0382 41.142V41.139Z" fill="white"/>
<path d="M15.3042 43.184C12.1502 43.184 10.7622 41.476 10.7042 41.404L10.6042 41.277L10.6142 41.117C10.6202 40.984 10.8112 37.864 12.5142 36.06C14.3442 34.12 16.5942 34.89 16.6372 34.91L16.8172 34.96L16.8972 35.12C17.9772 37.34 16.9772 42.53 16.9372 42.75L16.8772 43.05L16.5772 43.09C16.1572 43.14 15.7272 43.17 15.3272 43.17L15.3042 43.184ZM11.4762 40.991C11.8212 41.336 13.0092 42.333 15.3042 42.333C15.5762 42.333 15.8572 42.318 16.1442 42.29C16.3312 41.19 16.8992 37.44 16.2002 35.67C15.7152 35.57 14.3082 35.39 13.1332 36.63C11.8552 37.98 11.5412 40.32 11.4772 40.97L11.4762 40.991Z" fill="white"/>
<path d="M18.1282 35.245C18.1282 35.245 19.6632 38.831 19.0662 42.165C19.0662 42.165 18.7482 42.672 16.5032 42.678C16.5032 42.678 17.7832 36.583 16.5032 35.318L18.1282 35.245Z" fill="white"/>
<path d="M15.9792 43.104L16.0872 42.589C16.5672 40.319 17.0172 36.421 16.2072 35.619L15.5172 34.933L18.4072 34.806L18.5272 35.076C18.5972 35.226 20.1072 38.819 19.4972 42.238L19.4372 42.388C19.3072 42.601 18.7572 43.095 16.5172 43.101L15.9972 43.104H15.9792ZM17.2172 35.711C17.8372 37.406 17.3072 40.776 17.0272 42.241C18.0872 42.193 18.5272 42.018 18.6772 41.935C19.0972 39.325 18.1672 36.545 17.8472 35.683L17.2272 35.711H17.2172Z" fill="white"/>
<path d="M19.0662 42.161C19.0662 42.161 21.2022 41.767 21.6302 41.151C21.6302 41.151 21.3742 36.866 19.8362 35.241L18.1302 35.243C18.1282 35.245 19.8362 39.088 19.0672 42.163L19.0662 42.161Z" fill="white"/>
<path d="M18.4942 42.701L18.6542 42.058C19.3422 39.31 17.9102 35.813 17.7442 35.423L17.6322 35.158L17.9542 34.818L20.0182 34.815L20.1442 34.949C21.7702 36.666 22.0442 40.944 22.0542 41.126L22.0642 41.273L21.9792 41.393C21.4892 42.098 19.6862 42.479 19.1442 42.579L18.4942 42.699V42.701ZM18.7542 35.668C19.1902 36.85 19.9442 39.324 19.6082 41.608C20.2812 41.438 20.9322 41.203 21.1912 40.998C21.1252 40.215 20.7932 37.061 19.6442 35.668H18.7542V35.668Z" fill="white"/>
<path d="M14.2862 19.596C14.2862 19.596 13.5712 21.822 13.7132 22.599Z" fill="white"/>
<path d="M13.4282 22.655C13.5582 20.71 14.2112 19.832 14.2882 19.595L14.5642 19.685C14.3712 20.285 13.8922 21.971 14.0002 22.551L13.4282 22.655ZM70.1562 17.111C70.0983 17.0601 70.0227 17.0339 69.9457 17.038C69.8687 17.0421 69.7964 17.0762 69.7442 17.133C69.6382 17.25 69.6642 17.416 69.7642 17.543C71.2882 19.483 72.9972 20.045 74.0382 20.19C74.2702 20.02 77.0142 19.08 77.2202 18.9C75.9002 19.05 72.3182 19.07 70.1552 17.11L70.1562 17.111Z" fill="white"/>
<path d="M76.8232 0.34798C76.0372 0.20798 75.0272 0.529981 74.4872 1.16198C74.6572 1.34198 74.8472 1.46198 74.9672 1.65198C75.3972 1.21198 75.8972 1.03198 76.8272 1.03198C78.4272 1.03198 79.8272 4.15198 79.8272 6.90198C79.8272 8.83198 79.1972 10.502 78.2672 11.332C77.8672 11.692 77.4172 11.892 76.9472 11.892C76.4172 11.892 75.9172 11.632 75.4772 11.182C75.4172 11.672 75.0472 11.712 75.0472 11.712C75.5972 12.352 76.2472 12.732 76.9572 12.732C77.8072 12.732 78.5672 12.192 79.1672 11.312C79.8872 10.242 80.3472 8.66198 80.3472 6.89198C80.3572 3.67198 78.9072 0.73198 76.8572 0.36198L76.8232 0.34798Z" fill="white"/>
<path d="M75.1982 11.855C75.9762 10.605 76.4712 8.841 76.4712 6.86C76.4712 5.19 76.1152 3.7 75.5442 2.51C75.2502 1.99 74.7462 1.26 74.5962 1.05C73.9892 0.39 73.2782 0 72.5102 0C70.8682 0 69.4602 1.72 68.8582 4.19C68.6582 5.01 68.5482 5.91 68.5482 6.85C68.5482 10.63 70.3182 13.38 72.5082 13.38C73.3362 13.38 74.1012 13.25 74.7362 12.5L75.1982 11.84V11.855ZM74.8742 11.835C74.8782 11.841 74.4822 12.07 74.4872 12.08C74.4272 12.15 74.1372 12.01 74.0672 12.07C73.6072 12.48 73.0772 12.73 72.5172 12.73C69.9872 12.73 69.3672 7.86 69.3672 6.85C69.3672 3.62 70.6572 1.01 72.5172 1.01C73.1572 1.01 74.3872 1.66 74.7372 2.5C75.0872 3.34 75.9072 5.11 75.9072 6.86C75.9072 8.61 75.4672 10.17 74.7572 11.24C74.7572 11.23 75.0372 11.66 74.8872 11.81L74.8742 11.835ZM75.1982 11.855C75.1982 11.855 75.2022 11.851 75.1982 11.855C75.2162 11.875 75.2332 11.887 75.2502 11.905C75.2572 11.857 75.2662 11.815 75.2672 11.763L75.2072 11.855H75.1982Z" fill="white"/>
<div xmlns="" id="divScriptsUsed" style="display: none"/><script xmlns="" id="globalVarsDetection" src="chrome-extension://cmkdbmfndkfgebldhnkbfhlneefdaaip/js/wrs_env.js"/></svg>