<svg width="48" height="39" viewBox="0 0 48 39" fill="none" xmlns="http://www.w3.org/2000/svg">
<path d="M15.0934 39C33.2089 39 43.115 23.9935 43.115 10.9802C43.115 10.5538 43.1059 10.1296 43.0875 9.70755C45.015 8.31306 46.6785 6.58628 48 4.60814C46.203 5.40519 44.2964 5.92788 42.3441 6.15878C44.4003 4.92806 45.9393 2.99226 46.6746 0.711608C44.7411 1.85853 42.626 2.66693 40.4205 3.10203C38.9356 1.52403 36.9721 0.479298 34.8337 0.12939C32.6953 -0.220519 30.5012 0.143904 28.5907 1.16633C26.6803 2.18876 25.16 3.8122 24.2651 5.78549C23.3702 7.75877 23.1506 9.97194 23.6401 12.0826C19.7239 11.8868 15.8928 10.8695 12.3953 9.09693C8.89787 7.32437 5.81231 4.83611 3.33902 1.79372C2.07968 3.96183 1.69398 6.52835 2.2604 8.97082C2.82682 11.4133 4.30276 13.5482 6.38785 14.9408C4.8245 14.8926 3.29552 14.4701 1.92929 13.7087C1.92929 13.75 1.92929 13.7897 1.92929 13.8343C1.92994 16.1079 2.71714 18.3114 4.15729 20.0709C5.59744 21.8303 7.60188 23.0375 9.83068 23.4876C8.38039 23.8831 6.85872 23.9408 5.38266 23.6563C6.0116 25.6131 7.23654 27.3245 8.88614 28.5509C10.5357 29.7773 12.5275 30.4574 14.5827 30.4961C11.0941 33.234 6.78568 34.7187 2.35085 34.7111C1.56523 34.7119 0.780271 34.6665 0 34.575C4.50323 37.468 9.74412 39.0036 15.0967 38.9984" fill="white"/>
</svg>
